<mxfile host="app.diagrams.net" modified="2023-12-04T11:48:40.541Z" agent="Mozilla/5.0 (Windows NT 10.0; Win64; x64) AppleWebKit/537.36 (KHTML, like Gecko) Chrome/119.0.0.0 Safari/537.36" version="22.1.5" etag="mk3AQEUKX0_4oYMaYt_3" type="github">
  <diagram name="Page-1" id="nS8eiBXUuF-zHvzgz-u5">
    <mxGraphModel>
      <root>
        <mxCell id="0" />
        <mxCell id="1" parent="0" />
      </root>
    </mxGraphModel>
  </diagram>
</mxfile>
